<svg width="94" height="78" viewBox="0 0 94 78" fill="none" xmlns="http://www.w3.org/2000/svg">
<path d="M79.0868 1H79.1227H84.1536C88.6096 1 92.239 4.62944 92.239 9.12131V68.0907C92.239 72.5825 88.6096 76.212 84.1536 76.212H9.12131C4.62943 76.212 1 72.5825 1 68.0907V9.12131C1 4.62944 4.62943 1 9.12131 1H14.1163H20.1893H73.0497H79.0868Z" stroke="#88EBC4" stroke-width="2" stroke-miterlimit="10" stroke-linecap="round" stroke-linejoin="round"/>
<path d="M85.036 69.8605H8.20349C7.32444 69.8605 6.61182 69.1478 6.61182 68.2688V34.8003C6.61182 33.9212 7.32444 33.2086 8.20349 33.2086H85.036C85.915 33.2086 86.6277 33.9212 86.6277 34.8003V68.2688C86.6277 69.1478 85.915 69.8605 85.036 69.8605Z" stroke="#88EBC4" stroke-width="2" stroke-miterlimit="10" stroke-linecap="round" stroke-linejoin="round"/>
<path d="M22.3959 23.7445H8.91628C7.91729 23.7445 7.10742 22.9347 7.10742 21.9356V8.45602C7.10742 7.45702 7.91729 6.64716 8.91628 6.64716H22.3959C23.3949 6.64716 24.2047 7.45699 24.2047 8.45602V21.9356C24.2048 22.9347 23.3949 23.7445 22.3959 23.7445Z" stroke="#88EBC4" stroke-width="2" stroke-miterlimit="10" stroke-linecap="round" stroke-linejoin="round"/>
<path d="M84.7327 13.0026H38.8664C38.1066 13.0026 37.4907 12.3867 37.4907 11.6269V8.90191C37.4907 8.14214 38.1066 7.52625 38.8664 7.52625H84.7327C85.4925 7.52625 86.1083 8.14217 86.1083 8.90191V11.6269C86.1084 12.3867 85.4925 13.0026 84.7327 13.0026Z" stroke="#88EBC4" stroke-width="2" stroke-miterlimit="10" stroke-linecap="round" stroke-linejoin="round"/>
<path d="M58.4885 23.7445H39.0879C38.2058 23.7445 37.4907 23.0294 37.4907 22.1473V19.8652C37.4907 18.9831 38.2058 18.2681 39.0879 18.2681H58.4885C59.3706 18.2681 60.0857 18.9831 60.0857 19.8652V22.1473C60.0857 23.0294 59.3706 23.7445 58.4885 23.7445Z" stroke="#88EBC4" stroke-width="2" stroke-miterlimit="10" stroke-linecap="round" stroke-linejoin="round"/>
</svg>
