<svg width="104" height="135" viewBox="0 0 104 135" fill="none" xmlns="http://www.w3.org/2000/svg">
<path d="M77.0033 27.1831C77.0033 33.8621 74.3691 40.2675 69.68 44.9903C64.991 49.713 58.6313 52.3663 52 52.3663C45.3687 52.3663 39.009 49.713 34.32 44.9903C29.6309 40.2675 26.9967 33.8621 26.9967 27.1831C26.9967 20.5041 29.6309 14.0987 34.32 9.37597C39.009 4.65321 45.3687 2 52 2C58.6313 2 64.991 4.65321 69.68 9.37597C74.3691 14.0987 77.0033 20.5041 77.0033 27.1831ZM2 121.993C2.21426 108.779 7.57633 96.1793 16.9298 86.9111C26.2833 77.6429 38.8788 72.4488 52 72.4488C65.1212 72.4488 77.7167 77.6429 87.0702 86.9111C96.4237 96.1793 101.786 108.779 102 121.993C86.3138 129.237 69.2566 132.976 52 132.952C34.1576 132.952 17.222 129.03 2 121.993Z" stroke="#88EBC4" stroke-width="4" stroke-linecap="round" stroke-linejoin="round"/>
</svg>
